<svg width="14" height="14" viewBox="0 0 14 14" fill="none" xmlns="http://www.w3.org/2000/svg">
<path d="M7 0C3.1325 0 0 3.21383 0 7.17773C0 10.3497 2.0055 13.0395 4.78625 13.9876C5.13625 14.0552 5.26458 13.8333 5.26458 13.6425C5.26458 13.472 5.25875 13.0204 5.25583 12.4223C3.30867 12.8553 2.898 11.4592 2.898 11.4592C2.5795 10.6308 2.11925 10.4095 2.11925 10.4095C1.48517 9.96448 2.16825 9.97345 2.16825 9.97345C2.87117 10.0237 3.24042 10.7128 3.24042 10.7128C3.86458 11.8104 4.879 11.4933 5.27917 11.3097C5.34217 10.8455 5.52242 10.5291 5.7225 10.3497C4.16792 10.1702 2.534 9.55296 2.534 6.80269C2.534 6.01912 2.80525 5.37911 3.25442 4.87667C3.17567 4.69543 2.93942 3.9657 3.31567 2.97696C3.31567 2.97696 3.90192 2.78436 5.24067 3.71268C5.80067 3.55298 6.39567 3.47402 6.99067 3.47043C7.58567 3.47402 8.18067 3.55298 8.74067 3.71268C10.0707 2.78436 10.6569 2.97696 10.6569 2.97696C11.0332 3.9657 10.7969 4.69543 10.7269 4.87667C11.1732 5.37911 11.4444 6.01912 11.4444 6.80269C11.4444 9.56014 9.80817 10.1673 8.25067 10.3437C8.49567 10.559 8.72317 10.9993 8.72317 11.6716C8.72317 12.6322 8.71442 13.4038 8.71442 13.6371C8.71442 13.8255 8.83692 14.0498 9.19567 13.978C11.9962 13.0365 14 10.3449 14 7.17773C14 3.21383 10.8657 0 7 0" fill="#e2e8f0"/>
</svg>
