<svg width="14" height="14" viewBox="0 0 14 14" fill="none" xmlns="http://www.w3.org/2000/svg">
<path fill-rule="evenodd" clip-rule="evenodd" d="M4.11405 0.042C4.86072 0.00777635 5.09872 0 7 0C8.90165 0 9.13926 0.00816454 9.88553 0.042C10.631 0.0758354 11.1401 0.194447 11.5854 0.3675C12.0524 0.543334 12.4755 0.818834 12.8251 1.17484C13.1812 1.52447 13.4567 1.94757 13.6325 2.41461C13.8055 2.85989 13.9238 3.36895 13.958 4.11405C13.9922 4.86072 14 5.09872 14 7C14 8.90126 13.9919 9.13926 13.958 9.88597C13.9241 10.631 13.8055 11.1401 13.6325 11.5854C13.4536 12.0455 13.214 12.4363 12.8251 12.8251C12.4755 13.1812 12.0524 13.4567 11.5854 13.6325C11.1401 13.8055 10.631 13.9238 9.88597 13.958C9.13926 13.9922 8.90126 14 7 14C5.09872 14 4.86072 13.9919 4.11405 13.958C3.36895 13.9241 2.85989 13.8055 2.41461 13.6325C1.95455 13.4536 1.56372 13.214 1.17484 12.8251C0.818771 12.4755 0.543251 12.0524 0.3675 11.5854C0.194447 11.1401 0.0762236 10.631 0.042 9.88597C0.00777635 9.13926 0 8.90165 0 7C0 5.09834 0.00816454 4.86072 0.042 4.11445C0.0758354 3.36895 0.194447 2.85989 0.3675 2.41461C0.543334 1.9476 0.818834 1.52452 1.17484 1.17484C1.52447 0.818771 1.94756 0.543251 2.41461 0.3675C2.85989 0.194447 3.36895 0.0762236 4.11405 0.042V0.042ZM9.82876 1.302C9.09065 1.26855 8.869 1.26116 7 1.26116C5.131 1.26116 4.90934 1.26855 4.17122 1.302C3.48872 1.33311 3.11811 1.44705 2.87155 1.54311C2.54489 1.66989 2.31155 1.82155 2.06655 2.06655C1.82195 2.31155 1.66989 2.54489 1.54311 2.87155C1.44705 3.11811 1.33311 3.48872 1.302 4.17122C1.26855 4.90934 1.26116 5.131 1.26116 7C1.26116 8.869 1.26855 9.09065 1.302 9.82876C1.33311 10.5113 1.44705 10.8819 1.54311 11.1285C1.65525 11.4325 1.83412 11.7076 2.06655 11.9335C2.2924 12.1659 2.56748 12.3448 2.87155 12.4569C3.11811 12.553 3.48872 12.6669 4.17122 12.698C4.90934 12.7315 5.13061 12.7389 7 12.7389C8.86938 12.7389 9.09065 12.7315 9.82876 12.698C10.5113 12.6669 10.8819 12.553 11.1285 12.4569C11.4551 12.3301 11.6885 12.1785 11.9335 11.9335C12.1659 11.7076 12.3448 11.4325 12.4569 11.1285C12.553 10.8819 12.6669 10.5113 12.698 9.82876C12.7315 9.09065 12.7389 8.869 12.7389 7C12.7389 5.131 12.7315 4.90934 12.698 4.17122C12.6669 3.48872 12.553 3.11811 12.4569 2.87155C12.3301 2.54489 12.1785 2.31155 11.9335 2.06655C11.6885 1.82195 11.4551 1.66989 11.1285 1.54311C10.8819 1.44705 10.5113 1.33311 9.82876 1.302V1.302ZM6.10623 9.15785C6.3896 9.27525 6.69327 9.33564 7 9.33564C7.6195 9.33564 8.21355 9.08956 8.65155 8.65155C9.08963 8.21355 9.33571 7.61944 9.33571 7C9.33571 6.38056 9.08963 5.78645 8.65155 5.34843C8.21355 4.91041 7.6195 4.66433 7 4.66433C6.69327 4.66433 6.3896 4.72475 6.10623 4.84212C5.82279 4.9595 5.56534 5.13154 5.34845 5.34843C5.13157 5.56532 4.95952 5.82279 4.84214 6.10616C4.72476 6.38954 4.66435 6.69327 4.66435 7C4.66435 7.30673 4.72476 7.61046 4.84214 7.89384C4.95952 8.17721 5.13157 8.43468 5.34845 8.65155C5.56534 8.86843 5.82279 9.0405 6.10623 9.15785V9.15785ZM4.45585 4.45582C5.13061 3.78107 6.04577 3.40199 7 3.40199C7.95429 3.40199 8.86945 3.78107 9.54418 4.45582C10.2189 5.13058 10.598 6.04577 10.598 7C10.598 7.95423 10.2189 8.86938 9.54418 9.54418C8.86945 10.2189 7.95429 10.598 7 10.598C6.04577 10.598 5.13061 10.2189 4.45585 9.54418C3.78109 8.86938 3.40202 7.95423 3.40202 7C3.40202 6.04577 3.78109 5.13058 4.45585 4.45582V4.45582ZM11.3958 3.93806C11.5553 3.77856 11.6449 3.56223 11.6449 3.33666C11.6449 3.11109 11.5553 2.89477 11.3958 2.73527C11.2363 2.57577 11.02 2.48616 10.7944 2.48616C10.5689 2.48616 10.3525 2.57577 10.193 2.73527C10.0335 2.89477 9.94388 3.11109 9.94388 3.33666C9.94388 3.56223 10.0335 3.77856 10.193 3.93806C10.3525 4.09756 10.5689 4.18716 10.7944 4.18716C11.02 4.18716 11.2363 4.09756 11.3958 3.93806Z" fill="#38BDF8"/>
</svg>
