<svg width="14" height="14" viewBox="0 0 14 14" fill="none" xmlns="http://www.w3.org/2000/svg">
<path d="M12.9637 0.00130407C12.7828 0.010673 12.6124 0.0692289 12.4609 0.134812H12.4588C12.3052 0.202736 11.5752 0.544703 10.4665 1.06234C9.35774 1.58232 7.91871 2.25688 6.49021 2.92676C3.63741 4.26418 0.832996 5.58052 0.832996 5.58052L0.866657 5.56646C0.866657 5.56646 0.673105 5.63673 0.471136 5.79132C0.368049 5.86627 0.254441 5.96933 0.155561 6.13094C0.056681 6.29256 -0.023265 6.54083 0.00618893 6.79614C0.0545773 7.22945 0.307038 7.48944 0.487967 7.63232C0.671001 7.77754 0.845619 7.84546 0.845619 7.84546H0.849827L3.47962 8.83154C3.59744 9.25315 4.28118 11.7547 4.44528 12.3308C4.54206 12.6752 4.63673 12.8906 4.75454 13.0546C4.81135 13.1389 4.87867 13.2092 4.95862 13.2654C4.99017 13.2865 5.02384 13.3029 5.0575 13.3169C5.06802 13.324 5.07854 13.3263 5.09116 13.3286L5.06381 13.3216C5.07222 13.324 5.07854 13.331 5.08485 13.3333C5.10589 13.3404 5.12061 13.3427 5.14796 13.3474C5.56452 13.4879 5.89903 13.1998 5.89903 13.1998L5.91797 13.1834L7.4706 11.6094L10.073 13.8322L10.1319 13.8603C10.6747 14.125 11.2238 13.9774 11.5142 13.7175C11.8066 13.4551 11.9202 13.1202 11.9202 13.1202L11.9391 13.0663L13.9504 1.59637C14.0072 1.31296 14.0219 1.04828 13.9588 0.790638C13.8957 0.532992 13.7337 0.291742 13.5381 0.162918C13.3403 0.031753 13.1446 -0.00806489 12.9637 0.00130407V0.00130407ZM12.909 1.23098C12.9069 1.26846 12.9132 1.26377 12.8985 1.33638V1.34341L10.9062 12.6939C10.8977 12.7103 10.883 12.7454 10.843 12.7806C10.801 12.818 10.7673 12.8415 10.5927 12.7642L7.40959 10.0472L5.48668 11.9983L5.89062 9.12667C5.89062 9.12667 10.8767 3.95266 11.0913 3.73015C11.3059 3.50764 11.2344 3.46079 11.2344 3.46079C11.2491 3.18909 10.9104 3.38115 10.9104 3.38115L4.35271 7.90402L4.35061 7.89231L1.20748 6.71416V6.71182C1.20537 6.71182 1.20117 6.70948 1.19906 6.70948C1.20117 6.70948 1.21589 6.70245 1.21589 6.70245L1.23272 6.69308L1.24956 6.68605C1.24956 6.68605 4.05607 5.36972 6.90887 4.0323C8.33738 3.36242 9.7764 2.68785 10.883 2.16787C11.9896 1.65024 12.808 1.2708 12.8543 1.24972C12.8985 1.23098 12.8775 1.23098 12.909 1.23098Z" fill="#38BDF8"/>
</svg>
